# xmcd
#
# Track frame offsets: 
#        182
#        15965
#        37077
#        56210
#        77382
#        103230
#        120822
#        133510
#        151010
#        169690
#
# Disc length: 2698 seconds
#
# Revision: 1
# Processed by: cddbd v1.5.2PL0 Copyright (c) Steve Scherf et al.
# Submitted via: ExactAudioCopyFreeDBPlugin 1.0
#
DISCID=6c0a880a
DTITLE=Mike Bloomfield - Uncle Bob's Barrelhaouse Blues
DYEAR=1990
DGENRE=Blues
TTITLE0=Don't You Lie To Me
TTITLE1=Women Lovin' Eachother
TTITLE2=Eyesight To THe Blind
TTITLE3=Cherry Red
TTITLE4=Uncle Bob's Barrelhouse Blues
TTITLE5=Linda Lou
TTITLE6=One Of These Days
TTITLE7=Jockey Blues
TTITLE8=Vamp In C
TTITLE9=Wee Wee Hours
EXTD=
EXTT0=
EXTT1=
EXTT2=
EXTT3=
EXTT4=
EXTT5=
EXTT6=
EXTT7=
EXTT8=
EXTT9=
PLAYORDER=
